<svg xmlns="http://www.w3.org/2000/svg" width="80" height="80" viewBox="0 0 80 80">
    <g fill="none" fill-rule="evenodd">
        <path d="M0 0h80v80H0z"/>
        <path fill="#FFF" d="M80 40c0 22.09-17.91 40-40 40S0 62.09 0 40 17.91 0 40 0s40 17.91 40 40zM61.806 60.08L49.588 47.857a17.294 17.294 0 0 0 3.347-10.302c-.041-9.668-7.861-17.499-17.53-17.555A17.327 17.327 0 0 0 18 37.43c.042 9.668 7.863 17.5 17.532 17.556a17.24 17.24 0 0 0 10.332-3.383l.013-.01 12.206 12.213a2.634 2.634 0 1 0 3.723-3.726zM35.52 51.486c-7.735-.044-13.991-6.309-14.025-14.044a13.866 13.866 0 0 1 13.923-13.944c7.735.045 13.99 6.31 14.025 14.045a13.866 13.866 0 0 1-13.923 13.943z" opacity=".8"/>
        <path d="M93 126h51v51H93z"/>
    </g>
</svg>
