<svg xmlns="http://www.w3.org/2000/svg" xmlns:xlink="http://www.w3.org/1999/xlink" width="44" height="44" viewBox="0 0 44 44">
    <defs>
        <path id="a" d="M0 0h22v22H0z"/>
    </defs>
    <g fill="none" fill-rule="evenodd">
        <path fill="#FFF" d="M22 41.25C11.386 41.25 2.75 32.614 2.75 22S11.386 2.75 22 2.75 41.25 11.386 41.25 22 32.614 41.25 22 41.25M22 0C9.87 0 0 9.87 0 22s9.87 22 22 22 22-9.87 22-22S34.13 0 22 0"/>
        <g transform="translate(11 11)">
            <mask id="b" fill="#fff">
                <use xlink:href="#a"/>
            </mask>
            <path fill="#FFF" d="M11 9.055l4.535-4.535a1.373 1.373 0 0 1 1.947-.002c.537.537.54 1.404-.002 1.947L12.945 11l4.535 4.535c.538.538.543 1.406.002 1.947a1.372 1.372 0 0 1-1.947-.002L11 12.945 6.465 17.48a1.373 1.373 0 0 1-1.947.002 1.372 1.372 0 0 1 .002-1.947L9.055 11 4.52 6.465a1.373 1.373 0 0 1-.002-1.947 1.372 1.372 0 0 1 1.947.002L11 9.055z" mask="url(#b)"/>
        </g>
    </g>
</svg>
