<?xml version="1.0" encoding="UTF-8"?>
<svg width="200px" height="36px" viewBox="0 0 200 36" version="1.1" xmlns="http://www.w3.org/2000/svg" xmlns:xlink="http://www.w3.org/1999/xlink">
    <!-- Generator: sketchtool 57.1 (101010) - https://sketch.com -->
    <title>9A53F4E7-9187-4688-9D2F-92027CF2AECB</title>
    <desc>Created with sketchtool.</desc>
    <g id="Symbols" stroke="none" stroke-width="1" fill="none" fill-rule="evenodd">
        <g id="desktop/navbar/career" transform="translate(-135.000000, -22.000000)">
            <g id="atom/logo/gojek-career">
                <g transform="translate(135.000000, 22.000000)">
                    <g transform="translate(0.020000, 0.857143)">
                        <ellipse id="Oval" cx="17.2100292" cy="17.1428571" rx="17.2100292" ry="17.1428571"></ellipse>
                        <g id="Group" fill="#00AA13">
                            <path d="M17.1798361,3.55271368e-15 C26.6302556,3.55271368e-15 34.3294792,7.63909774 34.2690931,17.0827068 C34.2690931,24.1804511 29.9816824,30.2255639 23.7619174,32.8421053 C23.4297941,32.9924812 22.9768986,33.0827068 22.5240031,33.0827068 C20.7728071,33.0827068 19.3235415,31.6691729 19.3235415,29.8947368 C19.3235415,28.5714286 20.1387534,27.4285714 21.2860887,26.9473684 L21.2860887,26.9473684 L21.5477952,26.835258 C25.2729103,25.1794569 27.86817,21.4333561 27.86817,17.112782 C27.86817,11.2180451 23.0674777,6.43609023 17.1496431,6.43609023 C11.2318085,6.43609023 6.43111616,11.2180451 6.43111616,17.112782 C6.43111616,21.5338346 9.14848918,25.3233083 13.0131975,26.9473684 L13.0131975,26.9473684 L13.1827465,27.0244511 C14.2400159,27.5433083 14.9757447,28.637594 14.9757447,29.8947368 C14.9757447,31.6390977 13.5566721,33.0827068 11.7752831,33.0827068 C11.3525806,33.0827068 10.8694921,32.9924812 10.5373687,32.8421053 C4.31760381,30.1954887 0.0301930336,24.1503759 0.0301930336,17.0827068 C0.0301930336,7.63909774 7.7294166,3.55271368e-15 17.1798361,3.55271368e-15 Z M17.1798361,10.6466165 C20.7316435,10.6466165 23.6109523,13.5146872 23.6109523,17.0526316 C23.6109523,20.590576 20.7316435,23.4586466 17.1798361,23.4586466 C13.6280287,23.4586466 10.74872,20.590576 10.74872,17.0526316 C10.74872,13.5146872 13.6280287,10.6466165 17.1798361,10.6466165 Z" id="Combined-Shape"></path>
                        </g>
                        <ellipse id="Oval" cx="17.2100292" cy="17.1428571" rx="17.2100292" ry="17.1428571"></ellipse>
                        <path d="M96.9843346,5.67404427 L96.9843346,27.6760563 C96.9843346,32.2937626 95.1057751,34.2857143 90.1063828,34.2857143 L86.8340533,34.2857143 L86.8340533,29.4869215 L89.6821919,29.4869215 C91.1971593,29.4869215 91.7425475,28.9134809 91.7425475,27.5855131 L91.7425475,5.67404427 L96.9843346,5.67404427 Z M64.2913391,5.64386318 L64.2913391,24.8993964 C64.2913391,30.2414487 60.2009272,34.2555332 54.2016565,34.2555332 C50.3940385,34.2555332 47.0394295,32.958216 44.7399537,30.6907311 L44.5058654,30.4527163 L47.9296916,27.1629779 C49.4143596,28.61167 51.1414224,29.4265594 54.0804591,29.4265594 C56.9400623,29.4265594 59.1112573,27.6551126 59.2265304,25.1964 L59.2313481,24.9899396 L59.2313481,23.0885312 L59.1707494,23.0885312 C57.8678775,24.5372233 55.6863245,25.3521127 53.0805806,25.3521127 C47.263106,25.3521127 42.9,21.1569416 42.9,15.4225352 C42.9,9.89939638 47.1419086,5.64386318 52.8987845,5.64386318 C55.4491992,5.64386318 57.6115072,6.36181931 58.9879597,7.66566606 L59.1707494,7.84708249 L59.2313481,7.84708249 L59.2313481,5.64386318 L64.2913391,5.64386318 Z M78.0169433,5.64386318 C84.2283094,5.64386318 88.6217148,9.95975855 88.6217148,15.5432596 C88.6217148,21.1267606 84.2283094,25.4426559 78.0169433,25.4426559 C71.8661758,25.4426559 67.4121718,21.1267606 67.4121718,15.5432596 C67.4121718,9.95975855 71.8358765,5.64386318 78.0169433,5.64386318 Z M110.255449,5.64386318 C116.452675,5.64386318 120.335376,9.9630114 120.463078,15.4446331 L120.466329,15.7243461 L120.466329,17.2032193 L105.225757,17.2032193 C105.316655,19.1649899 107.770902,21.1871227 110.922034,21.1871227 C112.941991,21.1871227 114.329852,20.6943703 115.818482,19.3960067 L116.042624,19.195171 L119.587648,21.6700201 C118.07268,23.5110664 115.163943,25.4426559 111.13413,25.4426559 C104.528872,25.4426559 100.044569,21.5191147 100.044569,15.5734406 C100.044569,9.80885312 104.286477,5.64386318 110.255449,5.64386318 Z M128.647152,3.55271368e-15 L128.677452,13.5211268 L128.73805,13.5211268 L137.221868,5.58350101 L144.008921,5.58350101 L135.222111,13.8832998 L143.978622,25.4124748 L137.918753,25.4124748 L131.919482,17.082495 L131.858883,17.082495 L128.677452,20.1006036 L128.677452,25.4426559 L123.617461,25.4426559 L123.617461,3.55271368e-15 L128.647152,3.55271368e-15 Z M78.0169433,10.2313883 C74.7446138,10.2313883 72.6539589,12.4949698 72.6539589,15.5432596 C72.6539589,18.5915493 74.7446138,20.8551308 78.0169433,20.8551308 C81.2892728,20.8551308 83.3799277,18.5613682 83.3799277,15.5432596 C83.3799277,12.4949698 81.2892728,10.2313883 78.0169433,10.2313883 Z M53.8683637,10.2615694 C50.3839387,10.2615694 48.141787,12.3742455 48.141787,15.4225352 C48.141787,18.7424547 50.232442,20.7344064 53.6259689,20.7344064 C56.544533,20.7344064 58.8607399,18.9915314 58.9838084,16.7567593 L58.9889533,16.5694165 L59.0192527,16.5694165 L59.0192527,14.3661972 C59.0192527,12.193159 56.6256042,10.2615694 53.8683637,10.2615694 Z M110.376646,9.86921529 C107.646864,9.86921529 105.713269,11.2287789 105.319619,13.3168067 L105.286356,13.5211268 L115.376038,13.5211268 C115.133643,11.3179074 113.164186,9.86921529 110.376646,9.86921529 Z" id="Combined-Shape" fill="#1C1D1D"></path>
                        <path d="M154.301143,24.9963265 C151.733143,24.9963265 149.885143,23.1723265 149.885143,20.6163265 C149.885143,18.0603265 151.733143,16.2363265 154.301143,16.2363265 C156.329143,16.2363265 157.865143,17.3523265 158.273143,19.1523265 L156.545143,19.5843265 C156.245143,18.4803265 155.429143,17.8443265 154.301143,17.8443265 C152.765143,17.8443265 151.721143,18.9723265 151.721143,20.6163265 C151.721143,22.2603265 152.765143,23.3883265 154.301143,23.3883265 C155.477143,23.3883265 156.341143,22.7043265 156.569143,21.4923265 L158.309143,21.9003265 C157.961143,23.8323265 156.389143,24.9963265 154.301143,24.9963265 Z M165.291643,24.8163265 L164.739643,23.5203265 L160.527643,23.5203265 L159.975643,24.8163265 L157.995643,24.8163265 L161.775643,16.4163265 L163.491643,16.4163265 L167.283643,24.8163265 L165.291643,24.8163265 Z M161.211643,21.9123265 L164.067643,21.9123265 L162.651643,18.5643265 L162.627643,18.5643265 L161.211643,21.9123265 Z M173.342143,21.6843265 L173.342143,21.7083265 L175.394143,24.8163265 L173.306143,24.8163265 L171.362143,21.7803265 L169.874143,21.7803265 L169.874143,24.8163265 L168.038143,24.8163265 L168.038143,16.4163265 L172.466143,16.4163265 C174.302143,16.4163265 175.466143,17.4603265 175.466143,19.0923265 C175.466143,20.4483265 174.674143,21.3963265 173.342143,21.6843265 Z M169.874143,20.1603265 L172.286143,20.1603265 C173.126143,20.1603265 173.630143,19.7763265 173.630143,19.0683265 C173.630143,18.3603265 173.198143,18.0243265 172.262143,18.0243265 L169.874143,18.0243265 L169.874143,20.1603265 Z M176.592643,24.8163265 L176.592643,16.4163265 L182.940643,16.4163265 L182.940643,18.0243265 L178.428643,18.0243265 L178.428643,19.7883265 L182.508643,19.7883265 L182.508643,21.3123265 L178.428643,21.3123265 L178.428643,23.2083265 L182.928643,23.2083265 L182.928643,24.8163265 L176.592643,24.8163265 Z M184.235143,24.8163265 L184.235143,16.4163265 L190.583143,16.4163265 L190.583143,18.0243265 L186.071143,18.0243265 L186.071143,19.7883265 L190.151143,19.7883265 L190.151143,21.3123265 L186.071143,21.3123265 L186.071143,23.2083265 L190.571143,23.2083265 L190.571143,24.8163265 L184.235143,24.8163265 Z M197.181643,21.6843265 L197.181643,21.7083265 L199.233643,24.8163265 L197.145643,24.8163265 L195.201643,21.7803265 L193.713643,21.7803265 L193.713643,24.8163265 L191.877643,24.8163265 L191.877643,16.4163265 L196.305643,16.4163265 C198.141643,16.4163265 199.305643,17.4603265 199.305643,19.0923265 C199.305643,20.4483265 198.513643,21.3963265 197.181643,21.6843265 Z M193.713643,20.1603265 L196.125643,20.1603265 C196.965643,20.1603265 197.469643,19.7763265 197.469643,19.0683265 C197.469643,18.3603265 197.037643,18.0243265 196.101643,18.0243265 L193.713643,18.0243265 L193.713643,20.1603265 Z" id="CAREER" fill="#25282B" fill-rule="nonzero"></path>
                    </g>
                </g>
            </g>
        </g>
    </g>
</svg>