<svg xmlns="http://www.w3.org/2000/svg" width="200" height="36" viewBox="0 0 200 36">
    <g fill="none" fill-rule="evenodd">
        <ellipse cx="17.23" cy="18" rx="17.21" ry="17.143"/>
        <path fill="#00AA13" d="M17.2.857c9.45 0 17.15 7.64 17.09 17.083 0 7.098-4.288 13.143-10.508 15.76-.332.15-.785.24-1.238.24-1.751 0-3.2-1.414-3.2-3.188 0-1.323.815-2.466 1.962-2.947l.262-.113c3.725-1.655 6.32-5.402 6.32-9.722 0-5.895-4.8-10.677-10.718-10.677S6.45 12.075 6.45 17.97c0 4.421 2.717 8.21 6.582 9.835l.17.077a3.205 3.205 0 0 1 1.793 2.87 3.196 3.196 0 0 1-3.2 3.188c-.423 0-.907-.09-1.239-.24C4.337 31.052.05 25.007.05 17.94.05 8.496 7.75.857 17.2.857zm0 10.647c3.552 0 6.431 2.868 6.431 6.406s-2.88 6.406-6.431 6.406c-3.552 0-6.431-2.868-6.431-6.406s2.879-6.406 6.43-6.406z"/>
        <ellipse cx="17.23" cy="18" rx="17.21" ry="17.143"/>
        <path fill="#FFF" d="M97.004 6.531v22.002c0 4.618-1.878 6.61-6.878 6.61h-3.272v-4.799h2.848c1.515 0 2.06-.573 2.06-1.901V6.53h5.242zm-32.693-.03v19.256c0 5.342-4.09 9.356-10.09 9.356-3.807 0-7.162-1.298-9.461-3.565l-.234-.238 3.424-3.29c1.484 1.449 3.211 2.264 6.15 2.264 2.86 0 5.031-1.772 5.147-4.23l.004-.207v-1.901h-.06c-1.303 1.448-3.485 2.263-6.09 2.263-5.818 0-10.181-4.195-10.181-9.93 0-5.522 4.242-9.778 9.999-9.778 2.55 0 4.713.718 6.089 2.022l.183.181h.06V6.501h5.06zm13.726 0c6.211 0 10.605 4.316 10.605 9.9 0 5.583-4.394 9.899-10.605 9.899-6.15 0-10.605-4.316-10.605-9.9 0-5.583 4.424-9.899 10.605-9.899zm32.238 0c6.198 0 10.08 4.32 10.208 9.8l.003.28v1.48h-15.24c.09 1.961 2.545 3.983 5.696 3.983 2.02 0 3.408-.492 4.896-1.79l.225-.202 3.545 2.475c-1.515 1.841-4.424 3.773-8.454 3.773-6.605 0-11.09-3.924-11.09-9.87 0-5.764 4.242-9.929 10.211-9.929zM128.667.857l.03 13.521h.061l8.484-7.937h6.787l-8.787 8.3L144 26.27h-6.06l-6-8.33h-.06l-3.182 3.018V26.3h-5.06V.857h5.03zM78.037 11.09c-3.272 0-5.363 2.263-5.363 5.311 0 3.049 2.09 5.312 5.363 5.312 3.272 0 5.363-2.293 5.363-5.312 0-3.048-2.09-5.311-5.363-5.311zm-24.149.03c-3.484 0-5.726 2.112-5.726 5.16 0 3.32 2.09 5.313 5.484 5.313 2.919 0 5.235-1.743 5.358-3.978l.005-.187h.03v-2.204c0-2.173-2.393-4.104-5.15-4.104zm56.509-.393c-2.73 0-4.664 1.36-5.057 3.448l-.034.204h10.09c-.242-2.203-2.212-3.652-5-3.652z"/>
        <path fill="#FFF" fill-rule="nonzero" d="M154.321 25.853c-2.568 0-4.416-1.824-4.416-4.38s1.848-4.38 4.416-4.38c2.028 0 3.564 1.116 3.972 2.916l-1.728.432c-.3-1.104-1.116-1.74-2.244-1.74-1.536 0-2.58 1.128-2.58 2.772s1.044 2.772 2.58 2.772c1.176 0 2.04-.684 2.268-1.896l1.74.408c-.348 1.932-1.92 3.096-4.008 3.096zm10.99-.18l-.551-1.296h-4.212l-.552 1.296h-1.98l3.78-8.4h1.716l3.792 8.4h-1.992zm-4.08-2.904h2.857l-1.416-3.348h-.024l-1.416 3.348zm12.131-.228v.024l2.052 3.108h-2.088l-1.944-3.036h-1.488v3.036h-1.836v-8.4h4.428c1.836 0 3 1.044 3 2.676 0 1.356-.792 2.304-2.124 2.592zm-3.468-1.524h2.412c.84 0 1.344-.384 1.344-1.092 0-.708-.432-1.044-1.368-1.044h-2.388v2.136zm6.719 4.656v-8.4h6.348v1.608h-4.512v1.764h4.08v1.524h-4.08v1.896h4.5v1.608h-6.336zm7.642 0v-8.4h6.348v1.608h-4.512v1.764h4.08v1.524h-4.08v1.896h4.5v1.608h-6.336zm12.947-3.132v.024l2.052 3.108h-2.088l-1.944-3.036h-1.488v3.036h-1.836v-8.4h4.428c1.836 0 3 1.044 3 2.676 0 1.356-.792 2.304-2.124 2.592zm-3.468-1.524h2.412c.84 0 1.344-.384 1.344-1.092 0-.708-.432-1.044-1.368-1.044h-2.388v2.136z"/>
    </g>
</svg>
